<svg width="165" height="34" viewBox="0 0 165 34" fill="none" xmlns="http://www.w3.org/2000/svg">
    <path
        d="M48.0263 17C48.0263 24.4558 41.9822 30.5 34.5263 30.5C27.0705 30.5 21.0263 24.4558 21.0263 17C21.0263 9.54416 27.0705 3.5 34.5263 3.5C41.9822 3.5 48.0263 9.54416 48.0263 17Z"
        fill="#273266" />
    <path
        d="M33.6243 11.63V15.48H38.7943V17.922H33.6243V21.992H39.4543V24.5H30.5443V9.122H39.4543V11.63H33.6243Z"
        fill="#BDE0FE" />
    <path
        d="M54.5953 21.662L57.6753 12.312H60.9533L56.4433 24.5H52.7033L48.2153 12.312H51.5153L54.5953 21.662ZM75.3332 18.142C75.3332 18.582 75.3039 18.978 75.2452 19.33H66.3352C66.4085 20.21 66.7165 20.8993 67.2592 21.398C67.8019 21.8967 68.4692 22.146 69.2612 22.146C70.4052 22.146 71.2192 21.6547 71.7032 20.672H75.0252C74.6732 21.8453 73.9985 22.8133 73.0012 23.576C72.0039 24.324 70.7792 24.698 69.3272 24.698C68.1539 24.698 67.0979 24.4413 66.1592 23.928C65.2352 23.4 64.5092 22.6593 63.9812 21.706C63.4679 20.7527 63.2112 19.6527 63.2112 18.406C63.2112 17.1447 63.4679 16.0373 63.9812 15.084C64.4945 14.1307 65.2132 13.3973 66.1372 12.884C67.0612 12.3707 68.1245 12.114 69.3272 12.114C70.4859 12.114 71.5199 12.3633 72.4292 12.862C73.3532 13.3607 74.0645 14.072 74.5632 14.996C75.0765 15.9053 75.3332 16.954 75.3332 18.142ZM72.1432 17.262C72.1285 16.47 71.8425 15.8393 71.2852 15.37C70.7279 14.886 70.0459 14.644 69.2392 14.644C68.4765 14.644 67.8312 14.8787 67.3032 15.348C66.7899 15.8027 66.4745 16.4407 66.3572 17.262H72.1432ZM85.6553 12.136C87.1073 12.136 88.2807 12.598 89.1753 13.522C90.07 14.4313 90.5173 15.7073 90.5173 17.35V24.5H87.4373V17.768C87.4373 16.8 87.1953 16.0593 86.7113 15.546C86.2273 15.018 85.5673 14.754 84.7313 14.754C83.8807 14.754 83.206 15.018 82.7073 15.546C82.2233 16.0593 81.9813 16.8 81.9813 17.768V24.5H78.9013V12.312H81.9813V13.83C82.392 13.302 82.9127 12.8913 83.5433 12.598C84.1887 12.29 84.8927 12.136 85.6553 12.136ZM98.3523 14.842V20.738C98.3523 21.1487 98.4476 21.4493 98.6383 21.64C98.8436 21.816 99.1809 21.904 99.6503 21.904H101.08V24.5H99.1443C96.5483 24.5 95.2503 23.2387 95.2503 20.716V14.842H93.7983V12.312H95.2503V9.298H98.3523V12.312H101.08V14.842H98.3523ZM110.204 14.842H108.07V24.5H104.946V14.842H103.56V12.312H104.946V11.696C104.946 10.2 105.371 9.1 106.222 8.396C107.072 7.692 108.356 7.362 110.072 7.406V10.002C109.324 9.98733 108.803 10.112 108.51 10.376C108.216 10.64 108.07 11.1167 108.07 11.806V12.312H110.204V14.842ZM125.026 12.312V24.5H121.924V22.96C121.528 23.488 121.007 23.906 120.362 24.214C119.731 24.5073 119.042 24.654 118.294 24.654C117.34 24.654 116.497 24.456 115.764 24.06C115.03 23.6493 114.451 23.0553 114.026 22.278C113.615 21.486 113.41 20.5473 113.41 19.462V12.312H116.49V19.022C116.49 19.99 116.732 20.738 117.216 21.266C117.7 21.7793 118.36 22.036 119.196 22.036C120.046 22.036 120.714 21.7793 121.198 21.266C121.682 20.738 121.924 19.99 121.924 19.022V12.312H125.026ZM132.464 8.22V24.5H129.384V8.22H132.464ZM138.192 24.654C137.634 24.654 137.172 24.4853 136.806 24.148C136.454 23.796 136.278 23.3633 136.278 22.85C136.278 22.3367 136.454 21.9113 136.806 21.574C137.172 21.222 137.634 21.046 138.192 21.046C138.734 21.046 139.182 21.222 139.534 21.574C139.886 21.9113 140.062 22.3367 140.062 22.85C140.062 23.3633 139.886 23.796 139.534 24.148C139.182 24.4853 138.734 24.654 138.192 24.654ZM145.424 10.86C144.882 10.86 144.427 10.6913 144.06 10.354C143.708 10.002 143.532 9.56933 143.532 9.056C143.532 8.54267 143.708 8.11733 144.06 7.78C144.427 7.428 144.882 7.252 145.424 7.252C145.967 7.252 146.414 7.428 146.766 7.78C147.133 8.11733 147.316 8.54267 147.316 9.056C147.316 9.56933 147.133 10.002 146.766 10.354C146.414 10.6913 145.967 10.86 145.424 10.86ZM146.942 12.312V24.5H143.862V12.312H146.942ZM156.717 24.698C155.544 24.698 154.488 24.4413 153.549 23.928C152.611 23.4 151.87 22.6593 151.327 21.706C150.799 20.7527 150.535 19.6527 150.535 18.406C150.535 17.1593 150.807 16.0593 151.349 15.106C151.907 14.1527 152.662 13.4193 153.615 12.906C154.569 12.378 155.632 12.114 156.805 12.114C157.979 12.114 159.042 12.378 159.995 12.906C160.949 13.4193 161.697 14.1527 162.239 15.106C162.797 16.0593 163.075 17.1593 163.075 18.406C163.075 19.6527 162.789 20.7527 162.217 21.706C161.66 22.6593 160.897 23.4 159.929 23.928C158.976 24.4413 157.905 24.698 156.717 24.698ZM156.717 22.014C157.275 22.014 157.795 21.882 158.279 21.618C158.778 21.3393 159.174 20.9287 159.467 20.386C159.761 19.8433 159.907 19.1833 159.907 18.406C159.907 17.2473 159.599 16.36 158.983 15.744C158.382 15.1133 157.641 14.798 156.761 14.798C155.881 14.798 155.141 15.1133 154.539 15.744C153.953 16.36 153.659 17.2473 153.659 18.406C153.659 19.5647 153.945 20.4593 154.517 21.09C155.104 21.706 155.837 22.014 156.717 22.014Z"
        fill="#273266" />
    <rect y="14.5" width="17.0022" height="4.61706" rx="2.30853" fill="#BDE0FE" />
    <rect x="4.02631" y="8.5" width="17.0022" height="4.61706" rx="2.30853" fill="#273266" />
    <rect x="4.02631" y="21" width="17.0022" height="4.61706" rx="2.30853" fill="#273266" />
</svg>